<?xml version="1.0" standalone="no"?>
<!DOCTYPE svg PUBLIC "-//W3C//DTD SVG 20010904//EN"
 "http://www.w3.org/TR/2001/REC-SVG-20010904/DTD/svg10.dtd">
<svg version="1.0" xmlns="http://www.w3.org/2000/svg"
 width="6.600000pt" height="6.600000pt" viewBox="0 0 6.600000 6.600000"
 preserveAspectRatio="xMidYMid meet">
<metadata>
Created by potrace 1.16, written by Peter Selinger 2001-2019
</metadata>
<g transform="translate(0.000000,6.600000) scale(0.001375,-0.001375)"
fill="#000000" stroke="none">
<path d="M2392 4723 l-2 -83 -68 0 c-37 0 -73 5 -79 11 -16 16 -192 24 -223
10 -14 -6 -43 -24 -65 -40 -21 -16 -45 -26 -53 -24 -9 4 -7 -5 6 -28 16 -29
26 -35 68 -42 27 -5 76 -17 109 -26 65 -19 169 -20 203 -2 11 6 30 11 42 11
12 0 30 10 41 23 18 22 18 20 19 -135 0 -129 -3 -158 -14 -158 -8 0 -16 7 -20
15 -3 8 -14 15 -24 15 -10 0 -22 4 -27 9 -6 4 -31 16 -57 26 -26 10 -52 23
-58 30 -6 8 -25 11 -50 8 -23 -3 -46 -1 -53 5 -7 5 -32 12 -56 16 -51 8 -101
34 -101 53 0 20 -21 15 -27 -6 -5 -21 -39 -29 -113 -27 -38 1 -45 4 -45 21 0
15 -6 19 -22 18 -14 -2 -28 5 -35 17 -15 24 -28 26 -28 5 0 -8 -4 -15 -9 -15
-5 0 -11 -9 -14 -21 -4 -16 -9 -18 -24 -11 -31 17 -103 33 -114 27 -5 -4 -17
-1 -26 6 -8 7 -31 12 -51 10 -33 -3 -35 -2 -22 15 13 16 13 17 -1 12 -15 -6
-31 2 -92 45 -25 18 -26 18 -101 -25 -42 -24 -76 -49 -76 -56 0 -7 -4 -10 -10
-7 -30 18 -438 -314 -476 -388 -21 -39 -36 -135 -38 -237 -1 -79 -3 -85 -23
-88 -14 -2 -23 3 -28 17 -5 18 -8 19 -40 5 -42 -17 -77 -18 -94 -1 -10 10 -15
8 -27 -8 -34 -45 -129 -213 -171 -303 -43 -92 -44 -96 -26 -110 17 -14 17 -14
-4 -9 -27 6 -36 -14 -18 -41 16 -22 11 -32 -16 -32 -34 0 -113 -290 -144 -523
-20 -155 -20 -459 0 -614 48 -360 177 -710 373 -1009 44 -67 84 -124 89 -127
10 -7 73 136 73 165 0 36 106 193 138 205 9 4 40 23 68 44 57 42 166 99 189
99 33 0 12 -29 -41 -55 -30 -15 -53 -29 -50 -32 2 -2 13 0 25 6 16 9 23 7 35
-11 9 -12 16 -30 16 -38 0 -9 -35 -70 -78 -136 -43 -65 -81 -125 -85 -131 -5
-7 40 16 99 52 60 35 110 63 112 60 2 -2 -11 -17 -29 -33 -19 -16 -99 -86
-178 -155 -80 -69 -153 -139 -163 -156 l-19 -29 104 -105 c325 -327 730 -551
1177 -652 324 -74 719 -75 1050 -4 111 24 322 92 430 139 l75 32 -3 252 c-2
194 -6 253 -16 261 -8 6 -11 22 -8 43 4 33 9 36 36 26 14 -5 14 -8 1 -27 -19
-27 -19 -37 0 -37 13 0 15 -31 17 -207 1 -115 3 -221 4 -238 1 -16 3 -36 3
-42 1 -17 91 26 92 44 3 27 4 32 11 39 4 3 6 -3 3 -15 -2 -11 -1 -21 2 -21 14
0 82 44 78 50 -3 4 3 7 12 6 9 0 22 10 29 22 6 13 13 19 16 12 2 -6 35 11 76
40 360 247 665 624 836 1032 116 277 186 596 186 849 l0 99 -945 0 -944 0 -3
73 -3 72 -32 3 -33 3 0 65 0 64 -35 0 c-33 0 -35 2 -35 35 0 33 -2 35 -35 35
-32 0 -35 2 -35 29 0 29 -1 30 -65 36 -63 7 -65 8 -65 36 l0 29 -85 0 -85 0
-3 958 c-1 526 -3 920 -5 875z m-1081 -317 c4 -5 16 -6 28 -3 12 3 24 1 27 -4
3 -5 2 -8 -3 -7 -14 5 -15 -12 -1 -42 15 -34 33 -41 23 -9 -5 15 -4 19 4 15 6
-4 11 -16 11 -27 0 -24 26 -53 40 -44 5 3 10 -2 11 -12 1 -38 8 -51 49 -96 41
-45 72 -58 85 -37 9 15 25 12 25 -4 0 -8 -9 -18 -20 -21 -11 -3 -20 -11 -20
-16 0 -17 -18 -9 -23 11 -4 14 -10 18 -23 13 -11 -4 -13 -8 -6 -11 18 -6 15
-49 -4 -56 -8 -3 -25 -1 -36 5 -29 16 -33 4 -9 -27 21 -27 29 -84 11 -84 -6 0
-9 -3 -9 -7 4 -23 -4 -30 -28 -27 -15 1 -42 -4 -60 -12 -17 -9 -37 -17 -45
-18 -47 -9 -97 -28 -108 -41 -18 -21 -28 -19 -58 14 -22 25 -37 31 -84 35 -31
2 -72 9 -90 15 -18 6 -46 14 -63 19 -24 7 -31 15 -33 40 -3 26 1 34 20 41 40
15 61 48 62 94 1 36 3 41 13 28 9 -13 14 -13 24 -4 10 10 9 21 -8 52 l-21 39
30 31 c17 17 34 31 39 31 5 0 9 6 9 13 0 15 56 41 69 32 6 -3 16 3 23 15 7 11
17 20 21 20 5 0 16 7 25 16 15 15 15 17 0 28 -11 8 -14 17 -7 27 7 11 9 11 9
1 0 -10 4 -10 15 2 14 13 19 13 48 -2 17 -9 35 -21 38 -26z m628 -365 c12 -16
21 -38 21 -48 0 -11 11 -30 25 -43 23 -22 26 -22 43 -7 10 10 29 17 43 17 13
0 57 9 98 20 41 11 83 20 92 20 10 0 39 11 65 25 25 14 50 22 55 19 5 -3 9
-81 9 -175 0 -128 -3 -169 -12 -170 -68 -5 -102 -3 -116 8 -9 7 -26 13 -37 13
-11 0 -29 7 -39 15 -27 21 -53 19 -66 -5 -6 -11 -19 -20 -30 -20 -16 0 -19 5
-13 30 8 40 -24 43 -33 3 -12 -58 -14 -60 -36 -33 -11 14 -28 24 -38 22 -22
-4 -30 9 -36 51 -2 18 -8 64 -13 102 -14 107 -18 185 -10 185 4 0 17 -13 28
-29z m-484 -314 c11 -3 23 -5 28 -6 4 0 7 -8 7 -17 0 -9 15 -30 32 -46 l32
-30 -22 -18 c-12 -10 -22 -21 -22 -24 0 -3 18 -10 39 -16 54 -14 59 -36 18
-79 -19 -20 -43 -60 -53 -89 -14 -41 -22 -51 -35 -47 -25 8 -45 -30 -31 -59
18 -37 21 -55 12 -61 -9 -6 -59 14 -61 24 0 3 -2 15 -3 26 -20 157 -41 213
-108 293 -33 39 -37 66 -8 57 11 -3 27 -2 35 3 15 8 15 10 1 21 -20 17 -20 31
0 60 15 20 22 22 68 17 28 -3 60 -7 71 -9z m-574 -8 c15 0 35 -9 44 -19 16
-18 20 -18 46 -5 36 19 54 19 74 -2 29 -29 11 -80 -56 -151 -33 -35 -62 -76
-65 -91 -5 -23 -10 -27 -29 -23 -15 3 -30 -3 -41 -17 -29 -34 -44 -26 -44 22
0 23 -4 57 -9 75 -9 30 -8 32 15 32 14 0 27 7 30 15 4 8 12 15 20 15 8 0 14 7
14 15 0 8 -7 15 -16 15 -25 0 -84 65 -84 92 0 34 10 41 45 33 16 -3 42 -6 56
-6z m1199 -133 c5 -13 14 -27 19 -31 6 -3 11 -13 11 -22 0 -11 -7 -14 -26 -10
-23 4 -25 2 -19 -24 5 -22 0 -41 -20 -75 -26 -44 -26 -46 -8 -67 10 -12 19
-24 21 -27 2 -3 22 -5 45 -5 28 -1 72 -15 133 -44 78 -37 91 -46 86 -64 -3
-14 -1 -18 6 -13 7 4 12 2 12 -5 0 -7 10 -9 25 -7 21 5 25 2 25 -20 0 -20 -3
-23 -12 -14 -9 9 -14 8 -22 -4 -16 -21 -47 -24 -72 -7 -19 12 -24 10 -48 -12
-15 -14 -31 -26 -37 -26 -36 -5 -97 -29 -109 -45 -7 -8 -30 -14 -52 -14 -31 0
-41 -4 -45 -19 -3 -13 -21 -24 -50 -33 -29 -8 -49 -21 -56 -35 -11 -24 -23
-30 -29 -13 -2 6 -2 -15 -1 -45 0 -31 7 -62 13 -71 7 -8 13 -24 14 -37 1 -13
9 -23 20 -25 11 -2 27 -11 35 -20 22 -21 42 -62 30 -62 -5 0 -9 -11 -9 -25 0
-24 -1 -24 -34 12 -18 21 -43 57 -54 79 -20 38 -67 87 -92 96 -23 7 -30 80
-15 146 8 35 15 81 15 104 0 37 2 40 23 34 75 -22 76 -22 128 34 27 29 46 56
43 62 -7 12 17 138 27 138 4 0 7 17 6 38 0 20 6 65 13 100 11 51 17 62 34 62
16 0 17 3 8 12 -15 15 -16 28 -2 28 6 0 15 -11 20 -24z m-1570 -20 c0 -14 5
-37 10 -51 6 -15 12 -70 15 -123 9 -161 27 -203 96 -224 43 -12 63 -45 75
-117 l7 -42 -39 6 c-21 4 -43 11 -49 16 -5 5 -18 9 -30 9 -11 0 -26 9 -33 20
-7 11 -20 20 -30 20 -9 0 -32 9 -51 21 -18 11 -39 18 -45 16 -15 -6 -60 31
-75 61 -13 25 -31 30 -31 8 0 -16 -24 -28 -62 -31 -33 -3 -36 14 -8 38 21 18
19 37 -3 37 -12 0 -37 44 -37 65 0 7 11 17 24 23 21 9 29 6 66 -25 36 -31 44
-34 66 -25 13 7 24 18 24 26 0 18 60 76 78 76 7 0 10 5 7 10 -4 6 -11 8 -16 5
-12 -8 -12 21 1 64 7 26 6 39 -5 55 -19 27 -19 51 1 70 23 24 44 20 44 -8z
m274 -729 l30 -57 -19 -57 c-13 -36 -21 -50 -23 -38 -8 47 -13 51 -33 26 -15
-19 -23 -21 -32 -12 -9 9 -9 16 1 31 21 34 14 46 -38 71 -27 13 -50 29 -50 36
0 17 15 16 30 -2 19 -23 27 -18 34 19 4 19 12 37 19 40 31 13 52 -1 81 -57z
m1023 -126 c-5 -69 -42 -171 -91 -255 l-27 -46 -77 1 -77 0 29 22 c68 50 119
104 140 147 28 56 51 151 43 180 -3 12 -1 34 4 49 l11 26 25 -29 c23 -27 25
-36 20 -95z m523 -46 l0 -65 -55 0 -55 0 0 -75 c0 -60 -3 -75 -15 -75 -13 0
-15 22 -15 140 l0 140 70 0 70 0 0 -65z m-300 -340 c0 -33 2 -35 35 -35 33 0
35 -2 35 -35 l0 -35 64 0 65 0 3 -32 3 -33 148 -3 147 -3 0 36 0 35 85 0 85 0
0 35 c0 33 2 35 35 35 33 0 35 2 35 35 0 33 2 35 35 35 l35 0 0 -70 0 -70 -35
0 -35 0 0 -70 0 -70 -35 0 c-32 0 -35 -2 -35 -30 l0 -30 -65 0 -65 0 0 -35 0
-35 -170 0 -170 0 0 35 0 35 -65 0 -65 0 0 30 c0 28 -2 30 -37 30 l-38 0 3 70
4 70 -36 0 -36 0 0 70 0 70 35 0 c33 0 35 -2 35 -35z m470 -35 l0 -70 -100 0
-100 0 0 70 0 70 100 0 100 0 0 -70z m-1240 -529 c-5 -11 -10 -60 -10 -108 1
-48 -4 -112 -9 -142 -13 -65 -14 -148 -2 -155 5 -3 14 1 21 9 7 9 29 15 54 15
36 0 44 -4 61 -32 25 -42 25 -171 1 -308 -17 -96 -40 -362 -52 -615 -12 -221
-24 -123 -30 240 -6 331 -10 367 -59 510 -18 54 -28 302 -15 400 6 44 12 109
13 145 2 36 10 76 18 90 l14 25 3 -27 c2 -15 -2 -36 -8 -47z m445 -263 c4 -44
11 -78 17 -78 6 0 33 -14 60 -30 27 -17 54 -27 60 -24 16 10 82 -71 122 -151
56 -112 124 -275 182 -437 53 -147 54 -154 54 -259 0 -59 -4 -110 -9 -113 -5
-3 -21 29 -36 72 -36 102 -94 213 -173 330 -61 90 -65 100 -76 182 -8 58 -19
96 -34 117 -12 17 -22 36 -22 41 0 6 -42 74 -93 152 l-94 141 14 52 c7 28 13
63 14 77 1 41 7 11 14 -72z m1688 -315 c-3 -7 3 -16 13 -20 11 -3 28 -15 38
-26 20 -20 20 -20 0 -15 -51 15 -49 18 -49 -69 1 -80 0 -83 -23 -83 -12 0 -22
-6 -21 -12 3 -26 -1 -39 -11 -33 -6 4 -10 58 -10 131 0 76 4 124 10 124 6 0
10 -5 10 -11 0 -5 5 -7 10 -4 8 5 7 12 -1 22 -10 12 -10 16 1 23 16 10 39 -10
33 -27z"/>
<path d="M2810 4031 c-19 -11 -34 -24 -33 -30 2 -6 -3 -8 -11 -5 -17 6 -74
-58 -82 -93 -8 -31 3 -546 15 -700 6 -90 11 -106 36 -138 48 -63 181 -112 574
-210 297 -74 348 -72 422 16 52 62 98 86 189 99 57 8 84 7 130 -5 73 -19 199
-19 270 -1 30 8 58 12 61 8 3 -4 21 -50 39 -102 50 -142 94 -176 194 -150 28
7 77 12 109 12 45 -1 57 2 57 14 0 13 -9 15 -52 10 -29 -3 -42 -2 -30 2 19 6
9 10 -45 20 -37 7 -74 19 -81 25 -16 17 -52 116 -52 145 0 24 136 185 149 177
4 -2 8 8 9 21 2 25 2 25 -24 -6 -34 -40 -245 -144 -334 -165 -77 -17 -179 -19
-250 -4 -49 10 -50 11 -50 47 0 20 -7 154 -15 297 -8 143 -15 299 -15 348 l0
87 78 2 77 2 -80 5 -80 6 100 39 c106 41 195 85 195 96 0 3 -34 -10 -75 -31
-41 -21 -105 -48 -143 -60 l-68 -22 -144 32 c-80 18 -326 77 -548 132 -221 54
-415 99 -430 99 -15 0 -43 -9 -62 -19z m456 -85 c209 -52 454 -112 546 -132
92 -21 165 -41 162 -46 -3 -4 -15 -6 -27 -3 -203 43 -451 95 -460 95 -34 0 22
-15 209 -55 115 -24 219 -47 232 -50 20 -5 22 -11 22 -78 0 -39 7 -178 14
-307 16 -277 16 -270 10 -270 -12 0 -34 30 -35 47 -1 13 -3 11 -9 -7 -7 -23
-8 -23 -10 10 -1 19 -1 40 0 45 1 6 4 19 6 30 l4 20 -9 -20 c-8 -17 -10 -15
-10 13 -1 18 -5 31 -9 28 -5 -3 -9 1 -9 9 0 8 3 15 6 15 4 0 4 32 1 70 -4 58
-3 70 10 70 12 1 11 4 -4 15 -11 8 -14 15 -8 15 7 0 12 5 12 11 0 5 -4 7 -10
4 -6 -4 -10 10 -10 34 0 27 4 40 12 38 19 -4 20 27 3 85 l-15 55 -103 22
c-115 26 -275 63 -651 152 -279 66 -293 67 -360 23 l-39 -26 6 -262 c8 -327
18 -486 28 -486 5 0 9 15 9 33 0 22 3 28 9 18 5 -7 15 -10 22 -7 8 4 5 0 -5
-8 -18 -14 -15 -21 7 -17 5 1 5 -8 2 -20 -5 -15 -4 -19 4 -15 6 4 11 0 12 -11
0 -16 1 -16 9 2 8 19 9 19 9 -2 1 -28 -9 -29 -58 -3 -22 11 -41 29 -45 42 -5
19 -8 21 -16 8 -10 -13 -11 -13 -9 0 1 8 -1 22 -4 30 -11 27 -29 582 -22 670
6 67 12 90 29 108 29 33 89 62 126 62 17 0 126 -24 243 -54 189 -47 310 -74
282 -61 -5 3 -124 34 -263 69 -206 52 -259 62 -285 55 -18 -5 -34 -9 -37 -9
-12 1 67 39 81 40 9 0 187 -42 395 -94z m-198 -362 c34 -24 52 -68 52 -129 0
-49 -4 -60 -29 -86 -67 -67 -152 -3 -151 113 1 51 18 86 51 104 32 18 50 17
77 -2z m909 -526 c-3 -11 -2 -31 3 -44 9 -22 7 -24 -18 -24 -23 1 -24 2 -9 11
9 5 17 14 17 20 0 5 -12 -2 -27 -16 -15 -14 -38 -25 -51 -25 -12 0 -38 -7 -58
-15 -19 -8 -32 -10 -29 -5 3 6 -1 7 -9 4 -9 -3 -13 -11 -9 -17 3 -6 1 -7 -5
-3 -7 4 -33 -11 -62 -35 l-49 -41 -103 5 c-92 4 -255 33 -245 43 2 3 36 -2 76
-11 86 -18 223 -20 254 -3 12 6 38 24 57 40 39 30 134 68 174 68 41 0 77 18
75 37 -3 32 1 44 12 37 6 -3 8 -15 6 -26z"/>
<path d="M3002 3570 c-31 -13 -54 -72 -46 -116 4 -20 18 -49 31 -65 41 -48 95
-34 114 30 15 50 5 102 -26 135 -26 28 -37 30 -73 16z"/>
</g>
</svg>
